<svg xmlns="http://www.w3.org/2000/svg" width="960" height="620" viewBox="0 0 960 620" role="img" aria-label="Colour My World logo">
  <defs>
    <filter id="logoShadow" x="-20%" y="-20%" width="140%" height="140%">
      <feDropShadow dx="0" dy="12" stdDeviation="9" flood-color="#4d2b16" flood-opacity=".38"/>
    </filter>
    <linearGradient id="pill" x1="0" x2="0" y1="0" y2="1">
      <stop offset="0" stop-color="#ffffff"/>
      <stop offset="1" stop-color="#fff0dc"/>
    </linearGradient>
  </defs>
  <g filter="url(#logoShadow)">
    <path d="M230.406 14.656c-11.74.595-21.094 10.332-21.094 22.22 0 12.27 9.948 22.187 22.22 22.187 12.27 0 22.218-9.917 22.218-22.188 0-12.27-9.948-22.22-22.22-22.22-.382 0-.745-.018-1.124 0zm119.5 75.5c-14.066 0-25.47 11.402-25.47 25.47.002 14.066 11.404 25.468 25.47 25.468 14.067 0 25.47-11.402 25.47-25.47 0-14.066-11.403-25.468-25.47-25.468zM231.594 104.25c9.608 135.475-16.43 339.177-104.03 143.063 43.005 161.424-1.16 193.905-82.158 134.375C92.892 428.228 96.6 446 93.438 490.063h87.53c6.024-134.79 170.218-112.52 160.97 0h61.593c-2.084-64.2 19.595-109.802 79.72-169.063-61.48 49.15-138.108 86.467-125.438-41.188-48.405 139.543-115.11-25.45-126.218-175.562zM390.5 163.313c-19.997 0-36.22 16.22-36.22 36.218 0 19.998 16.223 36.22 36.22 36.22s36.188-16.222 36.188-36.22c0-19.996-16.19-36.218-36.188-36.218zM49.28 304.905c-14.065 0-25.468 11.402-25.468 25.47 0 14.066 11.403 25.468 25.47 25.468 14.066 0 25.468-11.402 25.468-25.47 0-14.066-11.402-25.468-25.47-25.468z" fill="#cf18ff" opacity="0.96" transform="translate(18 20) rotate(-22) scale(0.92)" />
    <path d="M230.406 14.656c-11.74.595-21.094 10.332-21.094 22.22 0 12.27 9.948 22.187 22.22 22.187 12.27 0 22.218-9.917 22.218-22.188 0-12.27-9.948-22.22-22.22-22.22-.382 0-.745-.018-1.124 0zm119.5 75.5c-14.066 0-25.47 11.402-25.47 25.47.002 14.066 11.404 25.468 25.47 25.468 14.067 0 25.47-11.402 25.47-25.47 0-14.066-11.403-25.468-25.47-25.468zM231.594 104.25c9.608 135.475-16.43 339.177-104.03 143.063 43.005 161.424-1.16 193.905-82.158 134.375C92.892 428.228 96.6 446 93.438 490.063h87.53c6.024-134.79 170.218-112.52 160.97 0h61.593c-2.084-64.2 19.595-109.802 79.72-169.063-61.48 49.15-138.108 86.467-125.438-41.188-48.405 139.543-115.11-25.45-126.218-175.562zM390.5 163.313c-19.997 0-36.22 16.22-36.22 36.218 0 19.998 16.223 36.22 36.22 36.22s36.188-16.222 36.188-36.22c0-19.996-16.19-36.218-36.188-36.218zM49.28 304.905c-14.065 0-25.468 11.402-25.468 25.47 0 14.066 11.403 25.468 25.47 25.468 14.066 0 25.468-11.402 25.468-25.47 0-14.066-11.402-25.468-25.47-25.468z" fill="#ff1798" opacity="0.96" transform="translate(90 18) rotate(12) scale(0.94)" />
    <path d="M230.406 14.656c-11.74.595-21.094 10.332-21.094 22.22 0 12.27 9.948 22.187 22.22 22.187 12.27 0 22.218-9.917 22.218-22.188 0-12.27-9.948-22.22-22.22-22.22-.382 0-.745-.018-1.124 0zm119.5 75.5c-14.066 0-25.47 11.402-25.47 25.47.002 14.066 11.404 25.468 25.47 25.468 14.067 0 25.47-11.402 25.47-25.47 0-14.066-11.403-25.468-25.47-25.468zM231.594 104.25c9.608 135.475-16.43 339.177-104.03 143.063 43.005 161.424-1.16 193.905-82.158 134.375C92.892 428.228 96.6 446 93.438 490.063h87.53c6.024-134.79 170.218-112.52 160.97 0h61.593c-2.084-64.2 19.595-109.802 79.72-169.063-61.48 49.15-138.108 86.467-125.438-41.188-48.405 139.543-115.11-25.45-126.218-175.562zM390.5 163.313c-19.997 0-36.22 16.22-36.22 36.218 0 19.998 16.223 36.22 36.22 36.22s36.188-16.222 36.188-36.22c0-19.996-16.19-36.218-36.188-36.218zM49.28 304.905c-14.065 0-25.468 11.402-25.468 25.47 0 14.066 11.403 25.468 25.47 25.468 14.066 0 25.468-11.402 25.468-25.47 0-14.066-11.402-25.468-25.47-25.468z" fill="#ff7d00" opacity="0.98" transform="translate(310 8) scale(0.98)" />
    <path d="M230.406 14.656c-11.74.595-21.094 10.332-21.094 22.22 0 12.27 9.948 22.187 22.22 22.187 12.27 0 22.218-9.917 22.218-22.188 0-12.27-9.948-22.22-22.22-22.22-.382 0-.745-.018-1.124 0zm119.5 75.5c-14.066 0-25.47 11.402-25.47 25.47.002 14.066 11.404 25.468 25.47 25.468 14.067 0 25.47-11.402 25.47-25.47 0-14.066-11.403-25.468-25.47-25.468zM231.594 104.25c9.608 135.475-16.43 339.177-104.03 143.063 43.005 161.424-1.16 193.905-82.158 134.375C92.892 428.228 96.6 446 93.438 490.063h87.53c6.024-134.79 170.218-112.52 160.97 0h61.593c-2.084-64.2 19.595-109.802 79.72-169.063-61.48 49.15-138.108 86.467-125.438-41.188-48.405 139.543-115.11-25.45-126.218-175.562zM390.5 163.313c-19.997 0-36.22 16.22-36.22 36.218 0 19.998 16.223 36.22 36.22 36.22s36.188-16.222 36.188-36.22c0-19.996-16.19-36.218-36.188-36.218zM49.28 304.905c-14.065 0-25.468 11.402-25.468 25.47 0 14.066 11.403 25.468 25.47 25.468 14.066 0 25.468-11.402 25.468-25.47 0-14.066-11.402-25.468-25.47-25.468z" fill="#ffde1f" opacity="0.95" transform="translate(520 18) rotate(18) scale(0.88)" />
    <path d="M230.406 14.656c-11.74.595-21.094 10.332-21.094 22.22 0 12.27 9.948 22.187 22.22 22.187 12.27 0 22.218-9.917 22.218-22.188 0-12.27-9.948-22.22-22.22-22.22-.382 0-.745-.018-1.124 0zm119.5 75.5c-14.066 0-25.47 11.402-25.47 25.47.002 14.066 11.404 25.468 25.47 25.468 14.067 0 25.47-11.402 25.47-25.47 0-14.066-11.403-25.468-25.47-25.468zM231.594 104.25c9.608 135.475-16.43 339.177-104.03 143.063 43.005 161.424-1.16 193.905-82.158 134.375C92.892 428.228 96.6 446 93.438 490.063h87.53c6.024-134.79 170.218-112.52 160.97 0h61.593c-2.084-64.2 19.595-109.802 79.72-169.063-61.48 49.15-138.108 86.467-125.438-41.188-48.405 139.543-115.11-25.45-126.218-175.562zM390.5 163.313c-19.997 0-36.22 16.22-36.22 36.218 0 19.998 16.223 36.22 36.22 36.22s36.188-16.222 36.188-36.22c0-19.996-16.19-36.218-36.188-36.218zM49.28 304.905c-14.065 0-25.468 11.402-25.468 25.47 0 14.066 11.403 25.468 25.47 25.468 14.066 0 25.468-11.402 25.468-25.47 0-14.066-11.402-25.468-25.47-25.468z" fill="#46d922" opacity="0.95" transform="translate(635 92) rotate(54) scale(0.78)" />
    <path d="M230.406 14.656c-11.74.595-21.094 10.332-21.094 22.22 0 12.27 9.948 22.187 22.22 22.187 12.27 0 22.218-9.917 22.218-22.188 0-12.27-9.948-22.22-22.22-22.22-.382 0-.745-.018-1.124 0zm119.5 75.5c-14.066 0-25.47 11.402-25.47 25.47.002 14.066 11.404 25.468 25.47 25.468 14.067 0 25.47-11.402 25.47-25.47 0-14.066-11.403-25.468-25.47-25.468zM231.594 104.25c9.608 135.475-16.43 339.177-104.03 143.063 43.005 161.424-1.16 193.905-82.158 134.375C92.892 428.228 96.6 446 93.438 490.063h87.53c6.024-134.79 170.218-112.52 160.97 0h61.593c-2.084-64.2 19.595-109.802 79.72-169.063-61.48 49.15-138.108 86.467-125.438-41.188-48.405 139.543-115.11-25.45-126.218-175.562zM390.5 163.313c-19.997 0-36.22 16.22-36.22 36.218 0 19.998 16.223 36.22 36.22 36.22s36.188-16.222 36.188-36.22c0-19.996-16.19-36.218-36.188-36.218zM49.28 304.905c-14.065 0-25.468 11.402-25.468 25.47 0 14.066 11.403 25.468 25.47 25.468 14.066 0 25.468-11.402 25.468-25.47 0-14.066-11.402-25.468-25.47-25.468z" fill="#00bfe9" opacity="0.92" transform="translate(660 205) rotate(95) scale(0.78)" />
    <path d="M230.406 14.656c-11.74.595-21.094 10.332-21.094 22.22 0 12.27 9.948 22.187 22.22 22.187 12.27 0 22.218-9.917 22.218-22.188 0-12.27-9.948-22.22-22.22-22.22-.382 0-.745-.018-1.124 0zm119.5 75.5c-14.066 0-25.47 11.402-25.47 25.47.002 14.066 11.404 25.468 25.47 25.468 14.067 0 25.47-11.402 25.47-25.47 0-14.066-11.403-25.468-25.47-25.468zM231.594 104.25c9.608 135.475-16.43 339.177-104.03 143.063 43.005 161.424-1.16 193.905-82.158 134.375C92.892 428.228 96.6 446 93.438 490.063h87.53c6.024-134.79 170.218-112.52 160.97 0h61.593c-2.084-64.2 19.595-109.802 79.72-169.063-61.48 49.15-138.108 86.467-125.438-41.188-48.405 139.543-115.11-25.45-126.218-175.562zM390.5 163.313c-19.997 0-36.22 16.22-36.22 36.218 0 19.998 16.223 36.22 36.22 36.22s36.188-16.222 36.188-36.22c0-19.996-16.19-36.218-36.188-36.218zM49.28 304.905c-14.065 0-25.468 11.402-25.468 25.47 0 14.066 11.403 25.468 25.47 25.468 14.066 0 25.468-11.402 25.468-25.47 0-14.066-11.402-25.468-25.47-25.468z" fill="#006dff" opacity="0.96" transform="translate(145 340) rotate(184) scale(0.88)" />
    <path d="M230.406 14.656c-11.74.595-21.094 10.332-21.094 22.22 0 12.27 9.948 22.187 22.22 22.187 12.27 0 22.218-9.917 22.218-22.188 0-12.27-9.948-22.22-22.22-22.22-.382 0-.745-.018-1.124 0zm119.5 75.5c-14.066 0-25.47 11.402-25.47 25.47.002 14.066 11.404 25.468 25.47 25.468 14.067 0 25.47-11.402 25.47-25.47 0-14.066-11.403-25.468-25.47-25.468zM231.594 104.25c9.608 135.475-16.43 339.177-104.03 143.063 43.005 161.424-1.16 193.905-82.158 134.375C92.892 428.228 96.6 446 93.438 490.063h87.53c6.024-134.79 170.218-112.52 160.97 0h61.593c-2.084-64.2 19.595-109.802 79.72-169.063-61.48 49.15-138.108 86.467-125.438-41.188-48.405 139.543-115.11-25.45-126.218-175.562zM390.5 163.313c-19.997 0-36.22 16.22-36.22 36.218 0 19.998 16.223 36.22 36.22 36.22s36.188-16.222 36.188-36.22c0-19.996-16.19-36.218-36.188-36.218zM49.28 304.905c-14.065 0-25.468 11.402-25.468 25.47 0 14.066 11.403 25.468 25.47 25.468 14.066 0 25.468-11.402 25.468-25.47 0-14.066-11.402-25.468-25.47-25.468z" fill="#8215e8" opacity="0.95" transform="translate(330 340) rotate(180) scale(0.78)" />
    <path d="M230.406 14.656c-11.74.595-21.094 10.332-21.094 22.22 0 12.27 9.948 22.187 22.22 22.187 12.27 0 22.218-9.917 22.218-22.188 0-12.27-9.948-22.22-22.22-22.22-.382 0-.745-.018-1.124 0zm119.5 75.5c-14.066 0-25.47 11.402-25.47 25.47.002 14.066 11.404 25.468 25.47 25.468 14.067 0 25.47-11.402 25.47-25.47 0-14.066-11.403-25.468-25.47-25.468zM231.594 104.25c9.608 135.475-16.43 339.177-104.03 143.063 43.005 161.424-1.16 193.905-82.158 134.375C92.892 428.228 96.6 446 93.438 490.063h87.53c6.024-134.79 170.218-112.52 160.97 0h61.593c-2.084-64.2 19.595-109.802 79.72-169.063-61.48 49.15-138.108 86.467-125.438-41.188-48.405 139.543-115.11-25.45-126.218-175.562zM390.5 163.313c-19.997 0-36.22 16.22-36.22 36.218 0 19.998 16.223 36.22 36.22 36.22s36.188-16.222 36.188-36.22c0-19.996-16.19-36.218-36.188-36.218zM49.28 304.905c-14.065 0-25.468 11.402-25.468 25.47 0 14.066 11.403 25.468 25.47 25.468 14.066 0 25.468-11.402 25.468-25.47 0-14.066-11.402-25.468-25.47-25.468z" fill="#ff8b00" opacity="0.95" transform="translate(575 330) rotate(176) scale(0.78)" />
    <ellipse cx="480" cy="306" rx="346" ry="78" fill="#ffffff" opacity=".96"/>
    <ellipse cx="480" cy="306" rx="300" ry="53" fill="url(#pill)"/>
    <path d="M333.197265625 160.63671875Q325.814453125 160.63671875 322.287109375 152.84375Q320.646484375 149.15234375 319.005859375 148.4140625Q317.775390625 147.83984375 312.525390625 147.83984375Q302.189453125 147.83984375 288.654296875 163.91796875Q269.705078125 186.39453125 269.705078125 206.0Q269.705078125 214.94140625 275.693359375 221.33984375Q281.681640625 227.73828125 290.048828125 227.73828125Q298.169921875 227.73828125 306.537109375 223.47265625Q309.490234375 221.9140625 319.005859375 215.43359375Q325.404296875 211.16796875 328.685546875 211.16796875Q333.607421875 211.16796875 337.052734375 214.77734375Q340.251953125 218.140625 340.251953125 222.48828125Q340.251953125 227.328125 335.986328125 230.9375Q313.427734375 249.96875 290.048828125 249.96875Q271.591796875 249.96875 258.876953125 236.515625Q246.736328125 223.5546875 246.736328125 206.0Q246.736328125 178.51953125 270.771484375 149.890625Q291.197265625 125.609375 312.525390625 125.609375Q316.134765625 125.609375 319.046875 125.85546875Q321.958984375 126.1015625 324.173828125 126.59375Q327.783203125 123.06640625 332.869140625 123.06640625Q341.236328125 123.06640625 343.205078125 132.6640625Q344.599609375 139.5546875 344.599609375 148.7421875Q344.599609375 152.84375 342.220703125 156.20703125Q339.103515625 160.63671875 333.197265625 160.63671875Z" fill="#5b2b22" opacity=".35" transform="translate(0 14)"/>
    <path d="M384.732421875 252.83984375Q369.556640625 252.83984375 358.646484375 242.421875Q346.669921875 231.01953125 346.095703125 211.98828125Q345.521484375 193.859375 356.021484375 179.66796875Q368.490234375 162.93359375 390.720703125 162.93359375Q407.126953125 162.93359375 416.806640625 176.05859375Q425.501953125 187.87109375 425.501953125 205.34375Q425.501953125 224.375 415.330078125 237.828125Q403.927734375 252.83984375 384.732421875 252.83984375ZM389.654296875 184.58984375Q379.564453125 184.5078125 373.740234375 193.77734375Q368.818359375 201.5703125 368.818359375 211.98828125Q368.818359375 221.83203125 374.396484375 227.08203125Q378.826171875 231.265625 384.732421875 231.265625Q391.869140625 231.265625 397.119140625 226.42578125Q403.107421875 220.765625 403.517578125 211.0859375Q404.583984375 184.671875 389.654296875 184.58984375Z" fill="#5b2b22" opacity=".35" transform="translate(0 14)"/>
    <path d="M460.548828125 235.94140625Q460.548828125 251.52734375 449.228515625 251.52734375Q444.306640625 251.52734375 441.107421875 248.41015625Q437.908203125 245.29296875 437.908203125 240.37109375V126.921875Q437.908203125 122.1640625 441.353515625 119.12890625Q444.634765625 116.33984375 449.474609375 116.33984375Q454.314453125 116.33984375 457.431640625 119.251953125Q460.548828125 122.1640625 460.548828125 126.921875Z" fill="#5b2b22" opacity=".35" transform="translate(0 14)"/>
    <path d="M511.099609375 252.83984375Q495.923828125 252.83984375 485.013671875 242.421875Q473.037109375 231.01953125 472.462890625 211.98828125Q471.888671875 193.859375 482.388671875 179.66796875Q494.857421875 162.93359375 517.087890625 162.93359375Q533.494140625 162.93359375 543.173828125 176.05859375Q551.869140625 187.87109375 551.869140625 205.34375Q551.869140625 224.375 541.697265625 237.828125Q530.294921875 252.83984375 511.099609375 252.83984375ZM516.021484375 184.58984375Q505.931640625 184.5078125 500.107421875 193.77734375Q495.185546875 201.5703125 495.185546875 211.98828125Q495.185546875 221.83203125 500.763671875 227.08203125Q505.193359375 231.265625 511.099609375 231.265625Q518.236328125 231.265625 523.486328125 226.42578125Q529.474609375 220.765625 529.884765625 211.0859375Q530.951171875 184.671875 516.021484375 184.58984375Z" fill="#5b2b22" opacity=".35" transform="translate(0 14)"/>
    <path d="M633.509765625 200.5859375Q633.509765625 206.08203125 633.591796875 217.15625Q633.673828125 228.23046875 633.673828125 233.7265625Q633.673828125 235.44921875 633.9609375 238.853515625Q634.248046875 242.2578125 634.248046875 243.98046875Q634.248046875 248.57421875 630.92578125 251.568359375Q627.603515625 254.5625 622.763671875 254.5625Q615.955078125 254.5625 612.837890625 248.41015625Q602.337890625 252.265625 591.099609375 252.265625Q579.451171875 252.265625 571.494140625 247.34375Q562.552734375 241.68359375 560.830078125 230.85546875Q557.630859375 210.34765625 557.630859375 194.1875Q557.630859375 183.5234375 560.091796875 169.82421875Q561.732421875 160.5546875 571.166015625 160.5546875Q575.923828125 160.5546875 579.287109375 163.548828125Q582.650390625 166.54296875 582.650390625 171.13671875Q582.650390625 174.74609375 581.4609375 182.45703125Q580.271484375 190.16796875 580.271484375 194.1875Q580.271484375 205.75390625 581.05078125 214.408203125Q581.830078125 223.0625 583.388671875 228.72265625Q585.439453125 229.625 587.3671875 230.1171875Q589.294921875 230.609375 591.099609375 230.609375Q600.205078125 230.609375 611.115234375 227.984375Q611.115234375 221.66796875 611.033203125 213.62890625Q610.869140625 204.03125 610.869140625 199.84765625Q610.869140625 183.03125 612.427734375 170.80859375Q613.658203125 161.046875 623.583984375 161.046875Q628.423828125 161.046875 631.869140625 164.08203125Q635.314453125 167.1171875 635.068359375 171.7109375Q633.509765625 202.96484375 633.509765625 200.5859375Z" fill="#5b2b22" opacity=".35" transform="translate(0 14)"/>
    <path d="M713.755859375 188.85546875Q713.017578125 201.40625 702.353515625 201.40625Q692.017578125 201.40625 692.017578125 190.7421875L691.607421875 182.45703125Q673.150390625 185.41015625 665.193359375 201.40625L665.275390625 242.66796875Q665.275390625 247.34375 662.076171875 250.419921875Q658.876953125 253.49609375 653.955078125 253.49609375Q648.869140625 253.49609375 646.080078125 250.21484375Q643.455078125 247.26171875 643.455078125 242.66796875V188.9375Q643.455078125 186.39453125 643.619140625 181.349609375Q643.783203125 176.3046875 643.783203125 173.76171875Q643.783203125 169.16796875 646.53125 166.091796875Q649.279296875 163.015625 654.365234375 163.015625Q663.470703125 163.015625 665.193359375 172.3671875Q679.712890625 161.5390625 697.431640625 161.5390625Q713.837890625 161.5390625 713.837890625 183.359375Q713.837890625 187.54296875 713.755859375 188.85546875Z" fill="#5b2b22" opacity=".35" transform="translate(0 14)"/>
    <path d="M333.197265625 160.63671875Q325.814453125 160.63671875 322.287109375 152.84375Q320.646484375 149.15234375 319.005859375 148.4140625Q317.775390625 147.83984375 312.525390625 147.83984375Q302.189453125 147.83984375 288.654296875 163.91796875Q269.705078125 186.39453125 269.705078125 206.0Q269.705078125 214.94140625 275.693359375 221.33984375Q281.681640625 227.73828125 290.048828125 227.73828125Q298.169921875 227.73828125 306.537109375 223.47265625Q309.490234375 221.9140625 319.005859375 215.43359375Q325.404296875 211.16796875 328.685546875 211.16796875Q333.607421875 211.16796875 337.052734375 214.77734375Q340.251953125 218.140625 340.251953125 222.48828125Q340.251953125 227.328125 335.986328125 230.9375Q313.427734375 249.96875 290.048828125 249.96875Q271.591796875 249.96875 258.876953125 236.515625Q246.736328125 223.5546875 246.736328125 206.0Q246.736328125 178.51953125 270.771484375 149.890625Q291.197265625 125.609375 312.525390625 125.609375Q316.134765625 125.609375 319.046875 125.85546875Q321.958984375 126.1015625 324.173828125 126.59375Q327.783203125 123.06640625 332.869140625 123.06640625Q341.236328125 123.06640625 343.205078125 132.6640625Q344.599609375 139.5546875 344.599609375 148.7421875Q344.599609375 152.84375 342.220703125 156.20703125Q339.103515625 160.63671875 333.197265625 160.63671875Z" fill="#fff8ef" stroke="#fff8ef" stroke-width="38" stroke-linejoin="round"/>
    <path d="M384.732421875 252.83984375Q369.556640625 252.83984375 358.646484375 242.421875Q346.669921875 231.01953125 346.095703125 211.98828125Q345.521484375 193.859375 356.021484375 179.66796875Q368.490234375 162.93359375 390.720703125 162.93359375Q407.126953125 162.93359375 416.806640625 176.05859375Q425.501953125 187.87109375 425.501953125 205.34375Q425.501953125 224.375 415.330078125 237.828125Q403.927734375 252.83984375 384.732421875 252.83984375ZM389.654296875 184.58984375Q379.564453125 184.5078125 373.740234375 193.77734375Q368.818359375 201.5703125 368.818359375 211.98828125Q368.818359375 221.83203125 374.396484375 227.08203125Q378.826171875 231.265625 384.732421875 231.265625Q391.869140625 231.265625 397.119140625 226.42578125Q403.107421875 220.765625 403.517578125 211.0859375Q404.583984375 184.671875 389.654296875 184.58984375Z" fill="#fff8ef" stroke="#fff8ef" stroke-width="38" stroke-linejoin="round"/>
    <path d="M460.548828125 235.94140625Q460.548828125 251.52734375 449.228515625 251.52734375Q444.306640625 251.52734375 441.107421875 248.41015625Q437.908203125 245.29296875 437.908203125 240.37109375V126.921875Q437.908203125 122.1640625 441.353515625 119.12890625Q444.634765625 116.33984375 449.474609375 116.33984375Q454.314453125 116.33984375 457.431640625 119.251953125Q460.548828125 122.1640625 460.548828125 126.921875Z" fill="#fff8ef" stroke="#fff8ef" stroke-width="38" stroke-linejoin="round"/>
    <path d="M511.099609375 252.83984375Q495.923828125 252.83984375 485.013671875 242.421875Q473.037109375 231.01953125 472.462890625 211.98828125Q471.888671875 193.859375 482.388671875 179.66796875Q494.857421875 162.93359375 517.087890625 162.93359375Q533.494140625 162.93359375 543.173828125 176.05859375Q551.869140625 187.87109375 551.869140625 205.34375Q551.869140625 224.375 541.697265625 237.828125Q530.294921875 252.83984375 511.099609375 252.83984375ZM516.021484375 184.58984375Q505.931640625 184.5078125 500.107421875 193.77734375Q495.185546875 201.5703125 495.185546875 211.98828125Q495.185546875 221.83203125 500.763671875 227.08203125Q505.193359375 231.265625 511.099609375 231.265625Q518.236328125 231.265625 523.486328125 226.42578125Q529.474609375 220.765625 529.884765625 211.0859375Q530.951171875 184.671875 516.021484375 184.58984375Z" fill="#fff8ef" stroke="#fff8ef" stroke-width="38" stroke-linejoin="round"/>
    <path d="M633.509765625 200.5859375Q633.509765625 206.08203125 633.591796875 217.15625Q633.673828125 228.23046875 633.673828125 233.7265625Q633.673828125 235.44921875 633.9609375 238.853515625Q634.248046875 242.2578125 634.248046875 243.98046875Q634.248046875 248.57421875 630.92578125 251.568359375Q627.603515625 254.5625 622.763671875 254.5625Q615.955078125 254.5625 612.837890625 248.41015625Q602.337890625 252.265625 591.099609375 252.265625Q579.451171875 252.265625 571.494140625 247.34375Q562.552734375 241.68359375 560.830078125 230.85546875Q557.630859375 210.34765625 557.630859375 194.1875Q557.630859375 183.5234375 560.091796875 169.82421875Q561.732421875 160.5546875 571.166015625 160.5546875Q575.923828125 160.5546875 579.287109375 163.548828125Q582.650390625 166.54296875 582.650390625 171.13671875Q582.650390625 174.74609375 581.4609375 182.45703125Q580.271484375 190.16796875 580.271484375 194.1875Q580.271484375 205.75390625 581.05078125 214.408203125Q581.830078125 223.0625 583.388671875 228.72265625Q585.439453125 229.625 587.3671875 230.1171875Q589.294921875 230.609375 591.099609375 230.609375Q600.205078125 230.609375 611.115234375 227.984375Q611.115234375 221.66796875 611.033203125 213.62890625Q610.869140625 204.03125 610.869140625 199.84765625Q610.869140625 183.03125 612.427734375 170.80859375Q613.658203125 161.046875 623.583984375 161.046875Q628.423828125 161.046875 631.869140625 164.08203125Q635.314453125 167.1171875 635.068359375 171.7109375Q633.509765625 202.96484375 633.509765625 200.5859375Z" fill="#fff8ef" stroke="#fff8ef" stroke-width="38" stroke-linejoin="round"/>
    <path d="M713.755859375 188.85546875Q713.017578125 201.40625 702.353515625 201.40625Q692.017578125 201.40625 692.017578125 190.7421875L691.607421875 182.45703125Q673.150390625 185.41015625 665.193359375 201.40625L665.275390625 242.66796875Q665.275390625 247.34375 662.076171875 250.419921875Q658.876953125 253.49609375 653.955078125 253.49609375Q648.869140625 253.49609375 646.080078125 250.21484375Q643.455078125 247.26171875 643.455078125 242.66796875V188.9375Q643.455078125 186.39453125 643.619140625 181.349609375Q643.783203125 176.3046875 643.783203125 173.76171875Q643.783203125 169.16796875 646.53125 166.091796875Q649.279296875 163.015625 654.365234375 163.015625Q663.470703125 163.015625 665.193359375 172.3671875Q679.712890625 161.5390625 697.431640625 161.5390625Q713.837890625 161.5390625 713.837890625 183.359375Q713.837890625 187.54296875 713.755859375 188.85546875Z" fill="#fff8ef" stroke="#fff8ef" stroke-width="38" stroke-linejoin="round"/>
    <path d="M333.197265625 160.63671875Q325.814453125 160.63671875 322.287109375 152.84375Q320.646484375 149.15234375 319.005859375 148.4140625Q317.775390625 147.83984375 312.525390625 147.83984375Q302.189453125 147.83984375 288.654296875 163.91796875Q269.705078125 186.39453125 269.705078125 206.0Q269.705078125 214.94140625 275.693359375 221.33984375Q281.681640625 227.73828125 290.048828125 227.73828125Q298.169921875 227.73828125 306.537109375 223.47265625Q309.490234375 221.9140625 319.005859375 215.43359375Q325.404296875 211.16796875 328.685546875 211.16796875Q333.607421875 211.16796875 337.052734375 214.77734375Q340.251953125 218.140625 340.251953125 222.48828125Q340.251953125 227.328125 335.986328125 230.9375Q313.427734375 249.96875 290.048828125 249.96875Q271.591796875 249.96875 258.876953125 236.515625Q246.736328125 223.5546875 246.736328125 206.0Q246.736328125 178.51953125 270.771484375 149.890625Q291.197265625 125.609375 312.525390625 125.609375Q316.134765625 125.609375 319.046875 125.85546875Q321.958984375 126.1015625 324.173828125 126.59375Q327.783203125 123.06640625 332.869140625 123.06640625Q341.236328125 123.06640625 343.205078125 132.6640625Q344.599609375 139.5546875 344.599609375 148.7421875Q344.599609375 152.84375 342.220703125 156.20703125Q339.103515625 160.63671875 333.197265625 160.63671875Z" fill="#f0189b" stroke="#7c2c8f" stroke-opacity=".28" stroke-width="9" stroke-linejoin="round"/>
    <path d="M384.732421875 252.83984375Q369.556640625 252.83984375 358.646484375 242.421875Q346.669921875 231.01953125 346.095703125 211.98828125Q345.521484375 193.859375 356.021484375 179.66796875Q368.490234375 162.93359375 390.720703125 162.93359375Q407.126953125 162.93359375 416.806640625 176.05859375Q425.501953125 187.87109375 425.501953125 205.34375Q425.501953125 224.375 415.330078125 237.828125Q403.927734375 252.83984375 384.732421875 252.83984375ZM389.654296875 184.58984375Q379.564453125 184.5078125 373.740234375 193.77734375Q368.818359375 201.5703125 368.818359375 211.98828125Q368.818359375 221.83203125 374.396484375 227.08203125Q378.826171875 231.265625 384.732421875 231.265625Q391.869140625 231.265625 397.119140625 226.42578125Q403.107421875 220.765625 403.517578125 211.0859375Q404.583984375 184.671875 389.654296875 184.58984375Z" fill="#ff7a00" stroke="#7c2c8f" stroke-opacity=".28" stroke-width="9" stroke-linejoin="round"/>
    <path d="M460.548828125 235.94140625Q460.548828125 251.52734375 449.228515625 251.52734375Q444.306640625 251.52734375 441.107421875 248.41015625Q437.908203125 245.29296875 437.908203125 240.37109375V126.921875Q437.908203125 122.1640625 441.353515625 119.12890625Q444.634765625 116.33984375 449.474609375 116.33984375Q454.314453125 116.33984375 457.431640625 119.251953125Q460.548828125 122.1640625 460.548828125 126.921875Z" fill="#ffd328" stroke="#7c2c8f" stroke-opacity=".28" stroke-width="9" stroke-linejoin="round"/>
    <path d="M511.099609375 252.83984375Q495.923828125 252.83984375 485.013671875 242.421875Q473.037109375 231.01953125 472.462890625 211.98828125Q471.888671875 193.859375 482.388671875 179.66796875Q494.857421875 162.93359375 517.087890625 162.93359375Q533.494140625 162.93359375 543.173828125 176.05859375Q551.869140625 187.87109375 551.869140625 205.34375Q551.869140625 224.375 541.697265625 237.828125Q530.294921875 252.83984375 511.099609375 252.83984375ZM516.021484375 184.58984375Q505.931640625 184.5078125 500.107421875 193.77734375Q495.185546875 201.5703125 495.185546875 211.98828125Q495.185546875 221.83203125 500.763671875 227.08203125Q505.193359375 231.265625 511.099609375 231.265625Q518.236328125 231.265625 523.486328125 226.42578125Q529.474609375 220.765625 529.884765625 211.0859375Q530.951171875 184.671875 516.021484375 184.58984375Z" fill="#35c914" stroke="#7c2c8f" stroke-opacity=".28" stroke-width="9" stroke-linejoin="round"/>
    <path d="M633.509765625 200.5859375Q633.509765625 206.08203125 633.591796875 217.15625Q633.673828125 228.23046875 633.673828125 233.7265625Q633.673828125 235.44921875 633.9609375 238.853515625Q634.248046875 242.2578125 634.248046875 243.98046875Q634.248046875 248.57421875 630.92578125 251.568359375Q627.603515625 254.5625 622.763671875 254.5625Q615.955078125 254.5625 612.837890625 248.41015625Q602.337890625 252.265625 591.099609375 252.265625Q579.451171875 252.265625 571.494140625 247.34375Q562.552734375 241.68359375 560.830078125 230.85546875Q557.630859375 210.34765625 557.630859375 194.1875Q557.630859375 183.5234375 560.091796875 169.82421875Q561.732421875 160.5546875 571.166015625 160.5546875Q575.923828125 160.5546875 579.287109375 163.548828125Q582.650390625 166.54296875 582.650390625 171.13671875Q582.650390625 174.74609375 581.4609375 182.45703125Q580.271484375 190.16796875 580.271484375 194.1875Q580.271484375 205.75390625 581.05078125 214.408203125Q581.830078125 223.0625 583.388671875 228.72265625Q585.439453125 229.625 587.3671875 230.1171875Q589.294921875 230.609375 591.099609375 230.609375Q600.205078125 230.609375 611.115234375 227.984375Q611.115234375 221.66796875 611.033203125 213.62890625Q610.869140625 204.03125 610.869140625 199.84765625Q610.869140625 183.03125 612.427734375 170.80859375Q613.658203125 161.046875 623.583984375 161.046875Q628.423828125 161.046875 631.869140625 164.08203125Q635.314453125 167.1171875 635.068359375 171.7109375Q633.509765625 202.96484375 633.509765625 200.5859375Z" fill="#009bf5" stroke="#7c2c8f" stroke-opacity=".28" stroke-width="9" stroke-linejoin="round"/>
    <path d="M713.755859375 188.85546875Q713.017578125 201.40625 702.353515625 201.40625Q692.017578125 201.40625 692.017578125 190.7421875L691.607421875 182.45703125Q673.150390625 185.41015625 665.193359375 201.40625L665.275390625 242.66796875Q665.275390625 247.34375 662.076171875 250.419921875Q658.876953125 253.49609375 653.955078125 253.49609375Q648.869140625 253.49609375 646.080078125 250.21484375Q643.455078125 247.26171875 643.455078125 242.66796875V188.9375Q643.455078125 186.39453125 643.619140625 181.349609375Q643.783203125 176.3046875 643.783203125 173.76171875Q643.783203125 169.16796875 646.53125 166.091796875Q649.279296875 163.015625 654.365234375 163.015625Q663.470703125 163.015625 665.193359375 172.3671875Q679.712890625 161.5390625 697.431640625 161.5390625Q713.837890625 161.5390625 713.837890625 183.359375Q713.837890625 187.54296875 713.755859375 188.85546875Z" fill="#7b18e8" stroke="#7c2c8f" stroke-opacity=".28" stroke-width="9" stroke-linejoin="round"/>
    <path d="M333.197265625 160.63671875Q325.814453125 160.63671875 322.287109375 152.84375Q320.646484375 149.15234375 319.005859375 148.4140625Q317.775390625 147.83984375 312.525390625 147.83984375Q302.189453125 147.83984375 288.654296875 163.91796875Q269.705078125 186.39453125 269.705078125 206.0Q269.705078125 214.94140625 275.693359375 221.33984375Q281.681640625 227.73828125 290.048828125 227.73828125Q298.169921875 227.73828125 306.537109375 223.47265625Q309.490234375 221.9140625 319.005859375 215.43359375Q325.404296875 211.16796875 328.685546875 211.16796875Q333.607421875 211.16796875 337.052734375 214.77734375Q340.251953125 218.140625 340.251953125 222.48828125Q340.251953125 227.328125 335.986328125 230.9375Q313.427734375 249.96875 290.048828125 249.96875Q271.591796875 249.96875 258.876953125 236.515625Q246.736328125 223.5546875 246.736328125 206.0Q246.736328125 178.51953125 270.771484375 149.890625Q291.197265625 125.609375 312.525390625 125.609375Q316.134765625 125.609375 319.046875 125.85546875Q321.958984375 126.1015625 324.173828125 126.59375Q327.783203125 123.06640625 332.869140625 123.06640625Q341.236328125 123.06640625 343.205078125 132.6640625Q344.599609375 139.5546875 344.599609375 148.7421875Q344.599609375 152.84375 342.220703125 156.20703125Q339.103515625 160.63671875 333.197265625 160.63671875Z" fill="none" stroke="#ffffff" stroke-width="10" stroke-linecap="round" stroke-opacity=".38" transform="translate(-8 -18) scale(0.98 0.94)"/>
    <path d="M384.732421875 252.83984375Q369.556640625 252.83984375 358.646484375 242.421875Q346.669921875 231.01953125 346.095703125 211.98828125Q345.521484375 193.859375 356.021484375 179.66796875Q368.490234375 162.93359375 390.720703125 162.93359375Q407.126953125 162.93359375 416.806640625 176.05859375Q425.501953125 187.87109375 425.501953125 205.34375Q425.501953125 224.375 415.330078125 237.828125Q403.927734375 252.83984375 384.732421875 252.83984375ZM389.654296875 184.58984375Q379.564453125 184.5078125 373.740234375 193.77734375Q368.818359375 201.5703125 368.818359375 211.98828125Q368.818359375 221.83203125 374.396484375 227.08203125Q378.826171875 231.265625 384.732421875 231.265625Q391.869140625 231.265625 397.119140625 226.42578125Q403.107421875 220.765625 403.517578125 211.0859375Q404.583984375 184.671875 389.654296875 184.58984375Z" fill="none" stroke="#ffffff" stroke-width="10" stroke-linecap="round" stroke-opacity=".38" transform="translate(-8 -18) scale(0.98 0.94)"/>
    <path d="M460.548828125 235.94140625Q460.548828125 251.52734375 449.228515625 251.52734375Q444.306640625 251.52734375 441.107421875 248.41015625Q437.908203125 245.29296875 437.908203125 240.37109375V126.921875Q437.908203125 122.1640625 441.353515625 119.12890625Q444.634765625 116.33984375 449.474609375 116.33984375Q454.314453125 116.33984375 457.431640625 119.251953125Q460.548828125 122.1640625 460.548828125 126.921875Z" fill="none" stroke="#ffffff" stroke-width="10" stroke-linecap="round" stroke-opacity=".38" transform="translate(-8 -18) scale(0.98 0.94)"/>
    <path d="M511.099609375 252.83984375Q495.923828125 252.83984375 485.013671875 242.421875Q473.037109375 231.01953125 472.462890625 211.98828125Q471.888671875 193.859375 482.388671875 179.66796875Q494.857421875 162.93359375 517.087890625 162.93359375Q533.494140625 162.93359375 543.173828125 176.05859375Q551.869140625 187.87109375 551.869140625 205.34375Q551.869140625 224.375 541.697265625 237.828125Q530.294921875 252.83984375 511.099609375 252.83984375ZM516.021484375 184.58984375Q505.931640625 184.5078125 500.107421875 193.77734375Q495.185546875 201.5703125 495.185546875 211.98828125Q495.185546875 221.83203125 500.763671875 227.08203125Q505.193359375 231.265625 511.099609375 231.265625Q518.236328125 231.265625 523.486328125 226.42578125Q529.474609375 220.765625 529.884765625 211.0859375Q530.951171875 184.671875 516.021484375 184.58984375Z" fill="none" stroke="#ffffff" stroke-width="10" stroke-linecap="round" stroke-opacity=".38" transform="translate(-8 -18) scale(0.98 0.94)"/>
    <path d="M633.509765625 200.5859375Q633.509765625 206.08203125 633.591796875 217.15625Q633.673828125 228.23046875 633.673828125 233.7265625Q633.673828125 235.44921875 633.9609375 238.853515625Q634.248046875 242.2578125 634.248046875 243.98046875Q634.248046875 248.57421875 630.92578125 251.568359375Q627.603515625 254.5625 622.763671875 254.5625Q615.955078125 254.5625 612.837890625 248.41015625Q602.337890625 252.265625 591.099609375 252.265625Q579.451171875 252.265625 571.494140625 247.34375Q562.552734375 241.68359375 560.830078125 230.85546875Q557.630859375 210.34765625 557.630859375 194.1875Q557.630859375 183.5234375 560.091796875 169.82421875Q561.732421875 160.5546875 571.166015625 160.5546875Q575.923828125 160.5546875 579.287109375 163.548828125Q582.650390625 166.54296875 582.650390625 171.13671875Q582.650390625 174.74609375 581.4609375 182.45703125Q580.271484375 190.16796875 580.271484375 194.1875Q580.271484375 205.75390625 581.05078125 214.408203125Q581.830078125 223.0625 583.388671875 228.72265625Q585.439453125 229.625 587.3671875 230.1171875Q589.294921875 230.609375 591.099609375 230.609375Q600.205078125 230.609375 611.115234375 227.984375Q611.115234375 221.66796875 611.033203125 213.62890625Q610.869140625 204.03125 610.869140625 199.84765625Q610.869140625 183.03125 612.427734375 170.80859375Q613.658203125 161.046875 623.583984375 161.046875Q628.423828125 161.046875 631.869140625 164.08203125Q635.314453125 167.1171875 635.068359375 171.7109375Q633.509765625 202.96484375 633.509765625 200.5859375Z" fill="none" stroke="#ffffff" stroke-width="10" stroke-linecap="round" stroke-opacity=".38" transform="translate(-8 -18) scale(0.98 0.94)"/>
    <path d="M713.755859375 188.85546875Q713.017578125 201.40625 702.353515625 201.40625Q692.017578125 201.40625 692.017578125 190.7421875L691.607421875 182.45703125Q673.150390625 185.41015625 665.193359375 201.40625L665.275390625 242.66796875Q665.275390625 247.34375 662.076171875 250.419921875Q658.876953125 253.49609375 653.955078125 253.49609375Q648.869140625 253.49609375 646.080078125 250.21484375Q643.455078125 247.26171875 643.455078125 242.66796875V188.9375Q643.455078125 186.39453125 643.619140625 181.349609375Q643.783203125 176.3046875 643.783203125 173.76171875Q643.783203125 169.16796875 646.53125 166.091796875Q649.279296875 163.015625 654.365234375 163.015625Q663.470703125 163.015625 665.193359375 172.3671875Q679.712890625 161.5390625 697.431640625 161.5390625Q713.837890625 161.5390625 713.837890625 183.359375Q713.837890625 187.54296875 713.755859375 188.85546875Z" fill="none" stroke="#ffffff" stroke-width="10" stroke-linecap="round" stroke-opacity=".38" transform="translate(-8 -18) scale(0.98 0.94)"/>
    <path d="M431.21484375 307.8828125Q428.9296875 316.109375 424.81640625 332.71484375Q423.8515625 338.453125 422.9375 344.140625Q420.85546875 351.3515625 415.26953125 351.3515625Q411.765625 351.3515625 409.734375 348.96484375Q408.0078125 346.93359375 408.0078125 344.140625Q408.0078125 335.9140625 411.51171875 324.08203125Q416.7421875 306.359375 417.1484375 304.4296875Q418.62109375 296.609375 420.14453125 288.7890625Q422.4296875 278.0234375 425.095703125 274.443359375Q427.76171875 270.86328125 431.82421875 270.86328125Q436.4453125 270.86328125 438.62890625 275.53515625Q440.66015625 279.953125 442.99609375 293.61328125Q445.23046875 306.8671875 449.6484375 322.15234375Q455.4375 307.0703125 460.4140625 289.04296875L463.2578125 277.36328125Q466.0 270.1015625 471.73828125 270.1015625Q477.2734375 270.1015625 479.96484375 278.53125Q481.08203125 281.93359375 482.3515625 291.2265625Q485.296875 312.859375 489.765625 328.296875Q494.28515625 343.98828125 494.28515625 345.359375Q494.28515625 348.35546875 491.8984375 350.38671875Q489.6640625 352.21484375 486.87109375 352.21484375Q481.3359375 352.21484375 478.64453125 344.29296875L475.80078125 332.00390625Q473.36328125 322.86328125 470.51953125 305.75Q468.234375 312.5546875 462.953125 327.12890625L459.90625 336.47265625Q458.02734375 342.0078125 455.99609375 345.5625Q453.3046875 350.28515625 448.48046875 350.28515625Q443.70703125 350.28515625 441.16796875 344.6484375L438.32421875 335.203125Q434.36328125 322.203125 431.21484375 307.8828125Z" fill="#4d1c88" opacity=".35" transform="translate(0 14)"/>
    <path d="M553.8203125 305.08984375Q548.28515625 316.6171875 536.30078125 341.296875Q529.80078125 354.55078125 526.3984375 363.28515625Q525.33203125 366.43359375 523.046875 372.62890625Q521.21875 377.40234375 516.546875 377.40234375Q513.65234375 377.40234375 511.46875 375.5234375Q509.28515625 373.64453125 509.28515625 370.80078125Q509.28515625 366.078125 520.05078125 342.8203125Q514.46484375 331.80078125 502.328125 310.37109375Q501.109375 308.44140625 499.83984375 306.4609375Q498.46875 304.125 498.46875 302.1953125Q498.46875 299.453125 500.65234375 297.37109375Q502.8359375 295.2890625 505.6796875 295.2890625Q509.03125 295.2890625 510.91015625 297.77734375Q518.12109375 307.375 527.71875 326.671875Q533.15234375 314.63671875 534.3203125 312.1484375Q537.92578125 304.58203125 541.37890625 298.84375Q543.5625 295.1875 547.37109375 295.1875Q550.21484375 295.1875 552.44921875 297.1171875Q554.68359375 299.046875 554.68359375 301.83984375Q554.68359375 303.3125 553.8203125 305.08984375Z" fill="#4d1c88" opacity=".35" transform="translate(0 14)"/>
    <path d="M431.21484375 307.8828125Q428.9296875 316.109375 424.81640625 332.71484375Q423.8515625 338.453125 422.9375 344.140625Q420.85546875 351.3515625 415.26953125 351.3515625Q411.765625 351.3515625 409.734375 348.96484375Q408.0078125 346.93359375 408.0078125 344.140625Q408.0078125 335.9140625 411.51171875 324.08203125Q416.7421875 306.359375 417.1484375 304.4296875Q418.62109375 296.609375 420.14453125 288.7890625Q422.4296875 278.0234375 425.095703125 274.443359375Q427.76171875 270.86328125 431.82421875 270.86328125Q436.4453125 270.86328125 438.62890625 275.53515625Q440.66015625 279.953125 442.99609375 293.61328125Q445.23046875 306.8671875 449.6484375 322.15234375Q455.4375 307.0703125 460.4140625 289.04296875L463.2578125 277.36328125Q466.0 270.1015625 471.73828125 270.1015625Q477.2734375 270.1015625 479.96484375 278.53125Q481.08203125 281.93359375 482.3515625 291.2265625Q485.296875 312.859375 489.765625 328.296875Q494.28515625 343.98828125 494.28515625 345.359375Q494.28515625 348.35546875 491.8984375 350.38671875Q489.6640625 352.21484375 486.87109375 352.21484375Q481.3359375 352.21484375 478.64453125 344.29296875L475.80078125 332.00390625Q473.36328125 322.86328125 470.51953125 305.75Q468.234375 312.5546875 462.953125 327.12890625L459.90625 336.47265625Q458.02734375 342.0078125 455.99609375 345.5625Q453.3046875 350.28515625 448.48046875 350.28515625Q443.70703125 350.28515625 441.16796875 344.6484375L438.32421875 335.203125Q434.36328125 322.203125 431.21484375 307.8828125Z" fill="#fff8ef" stroke="#fff8ef" stroke-width="38" stroke-linejoin="round"/>
    <path d="M553.8203125 305.08984375Q548.28515625 316.6171875 536.30078125 341.296875Q529.80078125 354.55078125 526.3984375 363.28515625Q525.33203125 366.43359375 523.046875 372.62890625Q521.21875 377.40234375 516.546875 377.40234375Q513.65234375 377.40234375 511.46875 375.5234375Q509.28515625 373.64453125 509.28515625 370.80078125Q509.28515625 366.078125 520.05078125 342.8203125Q514.46484375 331.80078125 502.328125 310.37109375Q501.109375 308.44140625 499.83984375 306.4609375Q498.46875 304.125 498.46875 302.1953125Q498.46875 299.453125 500.65234375 297.37109375Q502.8359375 295.2890625 505.6796875 295.2890625Q509.03125 295.2890625 510.91015625 297.77734375Q518.12109375 307.375 527.71875 326.671875Q533.15234375 314.63671875 534.3203125 312.1484375Q537.92578125 304.58203125 541.37890625 298.84375Q543.5625 295.1875 547.37109375 295.1875Q550.21484375 295.1875 552.44921875 297.1171875Q554.68359375 299.046875 554.68359375 301.83984375Q554.68359375 303.3125 553.8203125 305.08984375Z" fill="#fff8ef" stroke="#fff8ef" stroke-width="38" stroke-linejoin="round"/>
    <path d="M431.21484375 307.8828125Q428.9296875 316.109375 424.81640625 332.71484375Q423.8515625 338.453125 422.9375 344.140625Q420.85546875 351.3515625 415.26953125 351.3515625Q411.765625 351.3515625 409.734375 348.96484375Q408.0078125 346.93359375 408.0078125 344.140625Q408.0078125 335.9140625 411.51171875 324.08203125Q416.7421875 306.359375 417.1484375 304.4296875Q418.62109375 296.609375 420.14453125 288.7890625Q422.4296875 278.0234375 425.095703125 274.443359375Q427.76171875 270.86328125 431.82421875 270.86328125Q436.4453125 270.86328125 438.62890625 275.53515625Q440.66015625 279.953125 442.99609375 293.61328125Q445.23046875 306.8671875 449.6484375 322.15234375Q455.4375 307.0703125 460.4140625 289.04296875L463.2578125 277.36328125Q466.0 270.1015625 471.73828125 270.1015625Q477.2734375 270.1015625 479.96484375 278.53125Q481.08203125 281.93359375 482.3515625 291.2265625Q485.296875 312.859375 489.765625 328.296875Q494.28515625 343.98828125 494.28515625 345.359375Q494.28515625 348.35546875 491.8984375 350.38671875Q489.6640625 352.21484375 486.87109375 352.21484375Q481.3359375 352.21484375 478.64453125 344.29296875L475.80078125 332.00390625Q473.36328125 322.86328125 470.51953125 305.75Q468.234375 312.5546875 462.953125 327.12890625L459.90625 336.47265625Q458.02734375 342.0078125 455.99609375 345.5625Q453.3046875 350.28515625 448.48046875 350.28515625Q443.70703125 350.28515625 441.16796875 344.6484375L438.32421875 335.203125Q434.36328125 322.203125 431.21484375 307.8828125Z" fill="#9d13df" stroke="#7c2c8f" stroke-opacity=".28" stroke-width="9" stroke-linejoin="round"/>
    <path d="M553.8203125 305.08984375Q548.28515625 316.6171875 536.30078125 341.296875Q529.80078125 354.55078125 526.3984375 363.28515625Q525.33203125 366.43359375 523.046875 372.62890625Q521.21875 377.40234375 516.546875 377.40234375Q513.65234375 377.40234375 511.46875 375.5234375Q509.28515625 373.64453125 509.28515625 370.80078125Q509.28515625 366.078125 520.05078125 342.8203125Q514.46484375 331.80078125 502.328125 310.37109375Q501.109375 308.44140625 499.83984375 306.4609375Q498.46875 304.125 498.46875 302.1953125Q498.46875 299.453125 500.65234375 297.37109375Q502.8359375 295.2890625 505.6796875 295.2890625Q509.03125 295.2890625 510.91015625 297.77734375Q518.12109375 307.375 527.71875 326.671875Q533.15234375 314.63671875 534.3203125 312.1484375Q537.92578125 304.58203125 541.37890625 298.84375Q543.5625 295.1875 547.37109375 295.1875Q550.21484375 295.1875 552.44921875 297.1171875Q554.68359375 299.046875 554.68359375 301.83984375Q554.68359375 303.3125 553.8203125 305.08984375Z" fill="#7f18dd" stroke="#7c2c8f" stroke-opacity=".28" stroke-width="9" stroke-linejoin="round"/>
    <path d="M431.21484375 307.8828125Q428.9296875 316.109375 424.81640625 332.71484375Q423.8515625 338.453125 422.9375 344.140625Q420.85546875 351.3515625 415.26953125 351.3515625Q411.765625 351.3515625 409.734375 348.96484375Q408.0078125 346.93359375 408.0078125 344.140625Q408.0078125 335.9140625 411.51171875 324.08203125Q416.7421875 306.359375 417.1484375 304.4296875Q418.62109375 296.609375 420.14453125 288.7890625Q422.4296875 278.0234375 425.095703125 274.443359375Q427.76171875 270.86328125 431.82421875 270.86328125Q436.4453125 270.86328125 438.62890625 275.53515625Q440.66015625 279.953125 442.99609375 293.61328125Q445.23046875 306.8671875 449.6484375 322.15234375Q455.4375 307.0703125 460.4140625 289.04296875L463.2578125 277.36328125Q466.0 270.1015625 471.73828125 270.1015625Q477.2734375 270.1015625 479.96484375 278.53125Q481.08203125 281.93359375 482.3515625 291.2265625Q485.296875 312.859375 489.765625 328.296875Q494.28515625 343.98828125 494.28515625 345.359375Q494.28515625 348.35546875 491.8984375 350.38671875Q489.6640625 352.21484375 486.87109375 352.21484375Q481.3359375 352.21484375 478.64453125 344.29296875L475.80078125 332.00390625Q473.36328125 322.86328125 470.51953125 305.75Q468.234375 312.5546875 462.953125 327.12890625L459.90625 336.47265625Q458.02734375 342.0078125 455.99609375 345.5625Q453.3046875 350.28515625 448.48046875 350.28515625Q443.70703125 350.28515625 441.16796875 344.6484375L438.32421875 335.203125Q434.36328125 322.203125 431.21484375 307.8828125Z" fill="none" stroke="#ffffff" stroke-width="10" stroke-linecap="round" stroke-opacity=".38" transform="translate(-8 -18) scale(0.98 0.94)"/>
    <path d="M553.8203125 305.08984375Q548.28515625 316.6171875 536.30078125 341.296875Q529.80078125 354.55078125 526.3984375 363.28515625Q525.33203125 366.43359375 523.046875 372.62890625Q521.21875 377.40234375 516.546875 377.40234375Q513.65234375 377.40234375 511.46875 375.5234375Q509.28515625 373.64453125 509.28515625 370.80078125Q509.28515625 366.078125 520.05078125 342.8203125Q514.46484375 331.80078125 502.328125 310.37109375Q501.109375 308.44140625 499.83984375 306.4609375Q498.46875 304.125 498.46875 302.1953125Q498.46875 299.453125 500.65234375 297.37109375Q502.8359375 295.2890625 505.6796875 295.2890625Q509.03125 295.2890625 510.91015625 297.77734375Q518.12109375 307.375 527.71875 326.671875Q533.15234375 314.63671875 534.3203125 312.1484375Q537.92578125 304.58203125 541.37890625 298.84375Q543.5625 295.1875 547.37109375 295.1875Q550.21484375 295.1875 552.44921875 297.1171875Q554.68359375 299.046875 554.68359375 301.83984375Q554.68359375 303.3125 553.8203125 305.08984375Z" fill="none" stroke="#ffffff" stroke-width="10" stroke-linecap="round" stroke-opacity=".38" transform="translate(-8 -18) scale(0.98 0.94)"/>
    <path d="M415.6044921875 410.4892578125Q414.126953125 414.052734375 412.1279296875 419.267578125Q410.650390625 424.30859375 407.34765625 434.216796875Q402.3935546875 446.9931640625 391.6162109375 471.416015625Q380.578125 496.2734375 375.7978515625 508.5283203125Q372.234375 517.654296875 369.10546875 523.1298828125Q365.0205078125 530.34375 356.6767578125 530.34375Q351.72265625 530.34375 347.724609375 527.6494140625Q343.03125 524.5205078125 342.68359375 519.392578125Q338.685546875 509.3974609375 337.642578125 503.052734375Q333.818359375 484.453125 327.0390625 447.1669921875Q321.3896484375 464.63671875 314.87109375 478.54296875Q305.13671875 499.40234375 302.0947265625 511.3095703125Q302.876953125 513.2216796875 302.876953125 515.39453125Q302.876953125 520.783203125 298.0966796875 524.1728515625Q293.9248046875 527.041015625 288.8837890625 527.041015625Q282.5390625 527.041015625 278.3671875 523.8251953125Q273.84765625 520.26171875 273.673828125 514.0908203125L270.9794921875 503.921875Q268.111328125 490.36328125 261.5927734375 463.419921875Q255.8564453125 442.8212890625 242.384765625 404.7529296875Q241.6025390625 402.580078125 241.6025390625 400.4072265625Q241.6025390625 395.1923828125 245.6005859375 392.150390625Q249.1640625 389.369140625 254.205078125 389.369140625Q260.810546875 389.369140625 264.7216796875 394.931640625Q266.89453125 397.9736328125 269.67578125 405.9697265625Q278.193359375 430.4794921875 288.8837890625 477.4130859375Q295.8369140625 460.46484375 303.05078125 437.4326171875Q308.8740234375 418.6591796875 312.5244140625 410.75Q321.2158203125 391.802734375 330.2548828125 391.802734375Q338.7724609375 391.802734375 342.68359375 401.1025390625Q344.595703125 405.53515625 346.4208984375 417.181640625Q346.9423828125 420.7451171875 348.6806640625 434.6513671875Q350.505859375 449.6005859375 359.6318359375 489.0595703125Q368.8447265625 467.5048828125 384.40234375 426.916015625Q385.3583984375 424.482421875 388.921875 410.923828125Q391.4423828125 401.189453125 395.2666015625 395.5400390625Q399.4384765625 389.4560546875 406.3916015625 389.4560546875Q411.693359375 389.4560546875 415.169921875 392.71533203125Q418.646484375 395.974609375 418.646484375 401.1025390625Q418.646484375 402.927734375 415.6044921875 410.4892578125Z" fill="#5b2b22" opacity=".35" transform="translate(0 14)"/>
    <path d="M458.970703125 527.1279296875Q442.8916015625 527.1279296875 431.33203125 516.08984375Q418.642578125 504.0087890625 418.0341796875 483.8447265625Q417.42578125 464.63671875 428.55078125 449.6005859375Q441.76171875 431.8701171875 465.3154296875 431.8701171875Q482.6982421875 431.8701171875 492.9541015625 445.7763671875Q502.1669921875 458.2919921875 502.1669921875 476.8046875Q502.1669921875 496.96875 491.3896484375 511.22265625Q479.30859375 527.1279296875 458.970703125 527.1279296875ZM464.185546875 454.8154296875Q453.4951171875 454.728515625 447.32421875 464.5498046875Q442.109375 472.806640625 442.109375 483.8447265625Q442.109375 494.2744140625 448.01953125 499.8369140625Q452.712890625 504.26953125 458.970703125 504.26953125Q466.5322265625 504.26953125 472.0947265625 499.1416015625Q478.439453125 493.14453125 478.8740234375 482.888671875Q480.00390625 454.90234375 464.185546875 454.8154296875Z" fill="#5b2b22" opacity=".35" transform="translate(0 14)"/>
    <path d="M581.6025390625 459.3349609375Q580.8203125 472.6328125 569.521484375 472.6328125Q558.5703125 472.6328125 558.5703125 461.333984375L558.1357421875 452.5556640625Q538.580078125 455.6845703125 530.1494140625 472.6328125L530.236328125 516.3505859375Q530.236328125 521.3046875 526.8466796875 524.56396484375Q523.45703125 527.8232421875 518.2421875 527.8232421875Q512.853515625 527.8232421875 509.8984375 524.3466796875Q507.1171875 521.2177734375 507.1171875 516.3505859375V459.421875Q507.1171875 456.7275390625 507.291015625 451.38232421875Q507.46484375 446.037109375 507.46484375 443.3427734375Q507.46484375 438.4755859375 510.37646484375 435.21630859375Q513.2880859375 431.95703125 518.6767578125 431.95703125Q528.32421875 431.95703125 530.1494140625 441.865234375Q545.533203125 430.392578125 564.306640625 430.392578125Q581.689453125 430.392578125 581.689453125 453.51171875Q581.689453125 457.9443359375 581.6025390625 459.3349609375Z" fill="#5b2b22" opacity=".35" transform="translate(0 14)"/>
    <path d="M613.0615234375 509.2236328125Q613.0615234375 525.7373046875 601.0673828125 525.7373046875Q595.8525390625 525.7373046875 592.462890625 522.4345703125Q589.0732421875 519.1318359375 589.0732421875 513.9169921875V393.71484375Q589.0732421875 388.673828125 592.7236328125 385.4580078125Q596.2001953125 382.5029296875 601.328125 382.5029296875Q606.4560546875 382.5029296875 609.7587890625 385.58837890625Q613.0615234375 388.673828125 613.0615234375 393.71484375Z" fill="#5b2b22" opacity=".35" transform="translate(0 14)"/>
    <path d="M690.671875 434.6513671875Q691.8017578125 405.013671875 693.3662109375 393.71484375Q694.84375 383.458984375 704.6650390625 383.458984375Q709.79296875 383.458984375 712.921875 386.76171875Q716.05078125 390.064453125 716.05078125 394.8447265625Q716.05078125 407.447265625 714.09521484375 432.3916015625Q712.1396484375 457.3359375 712.1396484375 469.9384765625Q712.1396484375 500.7060546875 714.138671875 511.1357421875Q714.3994140625 512.5263671875 714.3994140625 513.65625Q714.3994140625 518.4365234375 710.9228515625 521.52197265625Q707.4462890625 524.607421875 702.83984375 524.607421875Q696.408203125 524.607421875 693.279296875 518.87109375Q687.369140625 522.4345703125 681.0244140625 524.21630859375Q674.6796875 525.998046875 667.900390625 525.998046875Q648.431640625 525.998046875 635.568359375 513.5693359375Q622.4443359375 500.8798828125 622.4443359375 481.2373046875Q622.4443359375 457.857421875 635.6552734375 443.47314453125Q648.8662109375 429.0888671875 670.16015625 429.0888671875Q676.6787109375 429.0888671875 681.806640625 430.4794921875Q686.9345703125 431.8701171875 690.671875 434.6513671875ZM688.93359375 462.029296875Q686.0654296875 456.5537109375 681.458984375 453.859375Q676.8525390625 451.1650390625 670.5078125 451.1650390625Q657.64453125 451.1650390625 651.212890625 458.59619140625Q644.78125 466.02734375 644.78125 480.8896484375Q644.78125 490.2763671875 651.734375 496.96875Q658.6875 503.6611328125 667.900390625 503.6611328125Q674.5927734375 503.6611328125 678.0693359375 502.0966796875Q680.416015625 501.0537109375 686.0654296875 496.5341796875Q687.54296875 495.3173828125 688.93359375 493.83984375Q688.759765625 489.66796875 688.93359375 462.029296875Z" fill="#5b2b22" opacity=".35" transform="translate(0 14)"/>
    <path d="M415.6044921875 410.4892578125Q414.126953125 414.052734375 412.1279296875 419.267578125Q410.650390625 424.30859375 407.34765625 434.216796875Q402.3935546875 446.9931640625 391.6162109375 471.416015625Q380.578125 496.2734375 375.7978515625 508.5283203125Q372.234375 517.654296875 369.10546875 523.1298828125Q365.0205078125 530.34375 356.6767578125 530.34375Q351.72265625 530.34375 347.724609375 527.6494140625Q343.03125 524.5205078125 342.68359375 519.392578125Q338.685546875 509.3974609375 337.642578125 503.052734375Q333.818359375 484.453125 327.0390625 447.1669921875Q321.3896484375 464.63671875 314.87109375 478.54296875Q305.13671875 499.40234375 302.0947265625 511.3095703125Q302.876953125 513.2216796875 302.876953125 515.39453125Q302.876953125 520.783203125 298.0966796875 524.1728515625Q293.9248046875 527.041015625 288.8837890625 527.041015625Q282.5390625 527.041015625 278.3671875 523.8251953125Q273.84765625 520.26171875 273.673828125 514.0908203125L270.9794921875 503.921875Q268.111328125 490.36328125 261.5927734375 463.419921875Q255.8564453125 442.8212890625 242.384765625 404.7529296875Q241.6025390625 402.580078125 241.6025390625 400.4072265625Q241.6025390625 395.1923828125 245.6005859375 392.150390625Q249.1640625 389.369140625 254.205078125 389.369140625Q260.810546875 389.369140625 264.7216796875 394.931640625Q266.89453125 397.9736328125 269.67578125 405.9697265625Q278.193359375 430.4794921875 288.8837890625 477.4130859375Q295.8369140625 460.46484375 303.05078125 437.4326171875Q308.8740234375 418.6591796875 312.5244140625 410.75Q321.2158203125 391.802734375 330.2548828125 391.802734375Q338.7724609375 391.802734375 342.68359375 401.1025390625Q344.595703125 405.53515625 346.4208984375 417.181640625Q346.9423828125 420.7451171875 348.6806640625 434.6513671875Q350.505859375 449.6005859375 359.6318359375 489.0595703125Q368.8447265625 467.5048828125 384.40234375 426.916015625Q385.3583984375 424.482421875 388.921875 410.923828125Q391.4423828125 401.189453125 395.2666015625 395.5400390625Q399.4384765625 389.4560546875 406.3916015625 389.4560546875Q411.693359375 389.4560546875 415.169921875 392.71533203125Q418.646484375 395.974609375 418.646484375 401.1025390625Q418.646484375 402.927734375 415.6044921875 410.4892578125Z" fill="#fff8ef" stroke="#fff8ef" stroke-width="38" stroke-linejoin="round"/>
    <path d="M458.970703125 527.1279296875Q442.8916015625 527.1279296875 431.33203125 516.08984375Q418.642578125 504.0087890625 418.0341796875 483.8447265625Q417.42578125 464.63671875 428.55078125 449.6005859375Q441.76171875 431.8701171875 465.3154296875 431.8701171875Q482.6982421875 431.8701171875 492.9541015625 445.7763671875Q502.1669921875 458.2919921875 502.1669921875 476.8046875Q502.1669921875 496.96875 491.3896484375 511.22265625Q479.30859375 527.1279296875 458.970703125 527.1279296875ZM464.185546875 454.8154296875Q453.4951171875 454.728515625 447.32421875 464.5498046875Q442.109375 472.806640625 442.109375 483.8447265625Q442.109375 494.2744140625 448.01953125 499.8369140625Q452.712890625 504.26953125 458.970703125 504.26953125Q466.5322265625 504.26953125 472.0947265625 499.1416015625Q478.439453125 493.14453125 478.8740234375 482.888671875Q480.00390625 454.90234375 464.185546875 454.8154296875Z" fill="#fff8ef" stroke="#fff8ef" stroke-width="38" stroke-linejoin="round"/>
    <path d="M581.6025390625 459.3349609375Q580.8203125 472.6328125 569.521484375 472.6328125Q558.5703125 472.6328125 558.5703125 461.333984375L558.1357421875 452.5556640625Q538.580078125 455.6845703125 530.1494140625 472.6328125L530.236328125 516.3505859375Q530.236328125 521.3046875 526.8466796875 524.56396484375Q523.45703125 527.8232421875 518.2421875 527.8232421875Q512.853515625 527.8232421875 509.8984375 524.3466796875Q507.1171875 521.2177734375 507.1171875 516.3505859375V459.421875Q507.1171875 456.7275390625 507.291015625 451.38232421875Q507.46484375 446.037109375 507.46484375 443.3427734375Q507.46484375 438.4755859375 510.37646484375 435.21630859375Q513.2880859375 431.95703125 518.6767578125 431.95703125Q528.32421875 431.95703125 530.1494140625 441.865234375Q545.533203125 430.392578125 564.306640625 430.392578125Q581.689453125 430.392578125 581.689453125 453.51171875Q581.689453125 457.9443359375 581.6025390625 459.3349609375Z" fill="#fff8ef" stroke="#fff8ef" stroke-width="38" stroke-linejoin="round"/>
    <path d="M613.0615234375 509.2236328125Q613.0615234375 525.7373046875 601.0673828125 525.7373046875Q595.8525390625 525.7373046875 592.462890625 522.4345703125Q589.0732421875 519.1318359375 589.0732421875 513.9169921875V393.71484375Q589.0732421875 388.673828125 592.7236328125 385.4580078125Q596.2001953125 382.5029296875 601.328125 382.5029296875Q606.4560546875 382.5029296875 609.7587890625 385.58837890625Q613.0615234375 388.673828125 613.0615234375 393.71484375Z" fill="#fff8ef" stroke="#fff8ef" stroke-width="38" stroke-linejoin="round"/>
    <path d="M690.671875 434.6513671875Q691.8017578125 405.013671875 693.3662109375 393.71484375Q694.84375 383.458984375 704.6650390625 383.458984375Q709.79296875 383.458984375 712.921875 386.76171875Q716.05078125 390.064453125 716.05078125 394.8447265625Q716.05078125 407.447265625 714.09521484375 432.3916015625Q712.1396484375 457.3359375 712.1396484375 469.9384765625Q712.1396484375 500.7060546875 714.138671875 511.1357421875Q714.3994140625 512.5263671875 714.3994140625 513.65625Q714.3994140625 518.4365234375 710.9228515625 521.52197265625Q707.4462890625 524.607421875 702.83984375 524.607421875Q696.408203125 524.607421875 693.279296875 518.87109375Q687.369140625 522.4345703125 681.0244140625 524.21630859375Q674.6796875 525.998046875 667.900390625 525.998046875Q648.431640625 525.998046875 635.568359375 513.5693359375Q622.4443359375 500.8798828125 622.4443359375 481.2373046875Q622.4443359375 457.857421875 635.6552734375 443.47314453125Q648.8662109375 429.0888671875 670.16015625 429.0888671875Q676.6787109375 429.0888671875 681.806640625 430.4794921875Q686.9345703125 431.8701171875 690.671875 434.6513671875ZM688.93359375 462.029296875Q686.0654296875 456.5537109375 681.458984375 453.859375Q676.8525390625 451.1650390625 670.5078125 451.1650390625Q657.64453125 451.1650390625 651.212890625 458.59619140625Q644.78125 466.02734375 644.78125 480.8896484375Q644.78125 490.2763671875 651.734375 496.96875Q658.6875 503.6611328125 667.900390625 503.6611328125Q674.5927734375 503.6611328125 678.0693359375 502.0966796875Q680.416015625 501.0537109375 686.0654296875 496.5341796875Q687.54296875 495.3173828125 688.93359375 493.83984375Q688.759765625 489.66796875 688.93359375 462.029296875Z" fill="#fff8ef" stroke="#fff8ef" stroke-width="38" stroke-linejoin="round"/>
    <path d="M415.6044921875 410.4892578125Q414.126953125 414.052734375 412.1279296875 419.267578125Q410.650390625 424.30859375 407.34765625 434.216796875Q402.3935546875 446.9931640625 391.6162109375 471.416015625Q380.578125 496.2734375 375.7978515625 508.5283203125Q372.234375 517.654296875 369.10546875 523.1298828125Q365.0205078125 530.34375 356.6767578125 530.34375Q351.72265625 530.34375 347.724609375 527.6494140625Q343.03125 524.5205078125 342.68359375 519.392578125Q338.685546875 509.3974609375 337.642578125 503.052734375Q333.818359375 484.453125 327.0390625 447.1669921875Q321.3896484375 464.63671875 314.87109375 478.54296875Q305.13671875 499.40234375 302.0947265625 511.3095703125Q302.876953125 513.2216796875 302.876953125 515.39453125Q302.876953125 520.783203125 298.0966796875 524.1728515625Q293.9248046875 527.041015625 288.8837890625 527.041015625Q282.5390625 527.041015625 278.3671875 523.8251953125Q273.84765625 520.26171875 273.673828125 514.0908203125L270.9794921875 503.921875Q268.111328125 490.36328125 261.5927734375 463.419921875Q255.8564453125 442.8212890625 242.384765625 404.7529296875Q241.6025390625 402.580078125 241.6025390625 400.4072265625Q241.6025390625 395.1923828125 245.6005859375 392.150390625Q249.1640625 389.369140625 254.205078125 389.369140625Q260.810546875 389.369140625 264.7216796875 394.931640625Q266.89453125 397.9736328125 269.67578125 405.9697265625Q278.193359375 430.4794921875 288.8837890625 477.4130859375Q295.8369140625 460.46484375 303.05078125 437.4326171875Q308.8740234375 418.6591796875 312.5244140625 410.75Q321.2158203125 391.802734375 330.2548828125 391.802734375Q338.7724609375 391.802734375 342.68359375 401.1025390625Q344.595703125 405.53515625 346.4208984375 417.181640625Q346.9423828125 420.7451171875 348.6806640625 434.6513671875Q350.505859375 449.6005859375 359.6318359375 489.0595703125Q368.8447265625 467.5048828125 384.40234375 426.916015625Q385.3583984375 424.482421875 388.921875 410.923828125Q391.4423828125 401.189453125 395.2666015625 395.5400390625Q399.4384765625 389.4560546875 406.3916015625 389.4560546875Q411.693359375 389.4560546875 415.169921875 392.71533203125Q418.646484375 395.974609375 418.646484375 401.1025390625Q418.646484375 402.927734375 415.6044921875 410.4892578125Z" fill="#008cff" stroke="#7c2c8f" stroke-opacity=".28" stroke-width="9" stroke-linejoin="round"/>
    <path d="M458.970703125 527.1279296875Q442.8916015625 527.1279296875 431.33203125 516.08984375Q418.642578125 504.0087890625 418.0341796875 483.8447265625Q417.42578125 464.63671875 428.55078125 449.6005859375Q441.76171875 431.8701171875 465.3154296875 431.8701171875Q482.6982421875 431.8701171875 492.9541015625 445.7763671875Q502.1669921875 458.2919921875 502.1669921875 476.8046875Q502.1669921875 496.96875 491.3896484375 511.22265625Q479.30859375 527.1279296875 458.970703125 527.1279296875ZM464.185546875 454.8154296875Q453.4951171875 454.728515625 447.32421875 464.5498046875Q442.109375 472.806640625 442.109375 483.8447265625Q442.109375 494.2744140625 448.01953125 499.8369140625Q452.712890625 504.26953125 458.970703125 504.26953125Q466.5322265625 504.26953125 472.0947265625 499.1416015625Q478.439453125 493.14453125 478.8740234375 482.888671875Q480.00390625 454.90234375 464.185546875 454.8154296875Z" fill="#0758f6" stroke="#7c2c8f" stroke-opacity=".28" stroke-width="9" stroke-linejoin="round"/>
    <path d="M581.6025390625 459.3349609375Q580.8203125 472.6328125 569.521484375 472.6328125Q558.5703125 472.6328125 558.5703125 461.333984375L558.1357421875 452.5556640625Q538.580078125 455.6845703125 530.1494140625 472.6328125L530.236328125 516.3505859375Q530.236328125 521.3046875 526.8466796875 524.56396484375Q523.45703125 527.8232421875 518.2421875 527.8232421875Q512.853515625 527.8232421875 509.8984375 524.3466796875Q507.1171875 521.2177734375 507.1171875 516.3505859375V459.421875Q507.1171875 456.7275390625 507.291015625 451.38232421875Q507.46484375 446.037109375 507.46484375 443.3427734375Q507.46484375 438.4755859375 510.37646484375 435.21630859375Q513.2880859375 431.95703125 518.6767578125 431.95703125Q528.32421875 431.95703125 530.1494140625 441.865234375Q545.533203125 430.392578125 564.306640625 430.392578125Q581.689453125 430.392578125 581.689453125 453.51171875Q581.689453125 457.9443359375 581.6025390625 459.3349609375Z" fill="#b600dd" stroke="#7c2c8f" stroke-opacity=".28" stroke-width="9" stroke-linejoin="round"/>
    <path d="M613.0615234375 509.2236328125Q613.0615234375 525.7373046875 601.0673828125 525.7373046875Q595.8525390625 525.7373046875 592.462890625 522.4345703125Q589.0732421875 519.1318359375 589.0732421875 513.9169921875V393.71484375Q589.0732421875 388.673828125 592.7236328125 385.4580078125Q596.2001953125 382.5029296875 601.328125 382.5029296875Q606.4560546875 382.5029296875 609.7587890625 385.58837890625Q613.0615234375 388.673828125 613.0615234375 393.71484375Z" fill="#fa1f62" stroke="#7c2c8f" stroke-opacity=".28" stroke-width="9" stroke-linejoin="round"/>
    <path d="M690.671875 434.6513671875Q691.8017578125 405.013671875 693.3662109375 393.71484375Q694.84375 383.458984375 704.6650390625 383.458984375Q709.79296875 383.458984375 712.921875 386.76171875Q716.05078125 390.064453125 716.05078125 394.8447265625Q716.05078125 407.447265625 714.09521484375 432.3916015625Q712.1396484375 457.3359375 712.1396484375 469.9384765625Q712.1396484375 500.7060546875 714.138671875 511.1357421875Q714.3994140625 512.5263671875 714.3994140625 513.65625Q714.3994140625 518.4365234375 710.9228515625 521.52197265625Q707.4462890625 524.607421875 702.83984375 524.607421875Q696.408203125 524.607421875 693.279296875 518.87109375Q687.369140625 522.4345703125 681.0244140625 524.21630859375Q674.6796875 525.998046875 667.900390625 525.998046875Q648.431640625 525.998046875 635.568359375 513.5693359375Q622.4443359375 500.8798828125 622.4443359375 481.2373046875Q622.4443359375 457.857421875 635.6552734375 443.47314453125Q648.8662109375 429.0888671875 670.16015625 429.0888671875Q676.6787109375 429.0888671875 681.806640625 430.4794921875Q686.9345703125 431.8701171875 690.671875 434.6513671875ZM688.93359375 462.029296875Q686.0654296875 456.5537109375 681.458984375 453.859375Q676.8525390625 451.1650390625 670.5078125 451.1650390625Q657.64453125 451.1650390625 651.212890625 458.59619140625Q644.78125 466.02734375 644.78125 480.8896484375Q644.78125 490.2763671875 651.734375 496.96875Q658.6875 503.6611328125 667.900390625 503.6611328125Q674.5927734375 503.6611328125 678.0693359375 502.0966796875Q680.416015625 501.0537109375 686.0654296875 496.5341796875Q687.54296875 495.3173828125 688.93359375 493.83984375Q688.759765625 489.66796875 688.93359375 462.029296875Z" fill="#ff7d00" stroke="#7c2c8f" stroke-opacity=".28" stroke-width="9" stroke-linejoin="round"/>
    <path d="M415.6044921875 410.4892578125Q414.126953125 414.052734375 412.1279296875 419.267578125Q410.650390625 424.30859375 407.34765625 434.216796875Q402.3935546875 446.9931640625 391.6162109375 471.416015625Q380.578125 496.2734375 375.7978515625 508.5283203125Q372.234375 517.654296875 369.10546875 523.1298828125Q365.0205078125 530.34375 356.6767578125 530.34375Q351.72265625 530.34375 347.724609375 527.6494140625Q343.03125 524.5205078125 342.68359375 519.392578125Q338.685546875 509.3974609375 337.642578125 503.052734375Q333.818359375 484.453125 327.0390625 447.1669921875Q321.3896484375 464.63671875 314.87109375 478.54296875Q305.13671875 499.40234375 302.0947265625 511.3095703125Q302.876953125 513.2216796875 302.876953125 515.39453125Q302.876953125 520.783203125 298.0966796875 524.1728515625Q293.9248046875 527.041015625 288.8837890625 527.041015625Q282.5390625 527.041015625 278.3671875 523.8251953125Q273.84765625 520.26171875 273.673828125 514.0908203125L270.9794921875 503.921875Q268.111328125 490.36328125 261.5927734375 463.419921875Q255.8564453125 442.8212890625 242.384765625 404.7529296875Q241.6025390625 402.580078125 241.6025390625 400.4072265625Q241.6025390625 395.1923828125 245.6005859375 392.150390625Q249.1640625 389.369140625 254.205078125 389.369140625Q260.810546875 389.369140625 264.7216796875 394.931640625Q266.89453125 397.9736328125 269.67578125 405.9697265625Q278.193359375 430.4794921875 288.8837890625 477.4130859375Q295.8369140625 460.46484375 303.05078125 437.4326171875Q308.8740234375 418.6591796875 312.5244140625 410.75Q321.2158203125 391.802734375 330.2548828125 391.802734375Q338.7724609375 391.802734375 342.68359375 401.1025390625Q344.595703125 405.53515625 346.4208984375 417.181640625Q346.9423828125 420.7451171875 348.6806640625 434.6513671875Q350.505859375 449.6005859375 359.6318359375 489.0595703125Q368.8447265625 467.5048828125 384.40234375 426.916015625Q385.3583984375 424.482421875 388.921875 410.923828125Q391.4423828125 401.189453125 395.2666015625 395.5400390625Q399.4384765625 389.4560546875 406.3916015625 389.4560546875Q411.693359375 389.4560546875 415.169921875 392.71533203125Q418.646484375 395.974609375 418.646484375 401.1025390625Q418.646484375 402.927734375 415.6044921875 410.4892578125Z" fill="none" stroke="#ffffff" stroke-width="10" stroke-linecap="round" stroke-opacity=".38" transform="translate(-8 -18) scale(0.98 0.94)"/>
    <path d="M458.970703125 527.1279296875Q442.8916015625 527.1279296875 431.33203125 516.08984375Q418.642578125 504.0087890625 418.0341796875 483.8447265625Q417.42578125 464.63671875 428.55078125 449.6005859375Q441.76171875 431.8701171875 465.3154296875 431.8701171875Q482.6982421875 431.8701171875 492.9541015625 445.7763671875Q502.1669921875 458.2919921875 502.1669921875 476.8046875Q502.1669921875 496.96875 491.3896484375 511.22265625Q479.30859375 527.1279296875 458.970703125 527.1279296875ZM464.185546875 454.8154296875Q453.4951171875 454.728515625 447.32421875 464.5498046875Q442.109375 472.806640625 442.109375 483.8447265625Q442.109375 494.2744140625 448.01953125 499.8369140625Q452.712890625 504.26953125 458.970703125 504.26953125Q466.5322265625 504.26953125 472.0947265625 499.1416015625Q478.439453125 493.14453125 478.8740234375 482.888671875Q480.00390625 454.90234375 464.185546875 454.8154296875Z" fill="none" stroke="#ffffff" stroke-width="10" stroke-linecap="round" stroke-opacity=".38" transform="translate(-8 -18) scale(0.98 0.94)"/>
    <path d="M581.6025390625 459.3349609375Q580.8203125 472.6328125 569.521484375 472.6328125Q558.5703125 472.6328125 558.5703125 461.333984375L558.1357421875 452.5556640625Q538.580078125 455.6845703125 530.1494140625 472.6328125L530.236328125 516.3505859375Q530.236328125 521.3046875 526.8466796875 524.56396484375Q523.45703125 527.8232421875 518.2421875 527.8232421875Q512.853515625 527.8232421875 509.8984375 524.3466796875Q507.1171875 521.2177734375 507.1171875 516.3505859375V459.421875Q507.1171875 456.7275390625 507.291015625 451.38232421875Q507.46484375 446.037109375 507.46484375 443.3427734375Q507.46484375 438.4755859375 510.37646484375 435.21630859375Q513.2880859375 431.95703125 518.6767578125 431.95703125Q528.32421875 431.95703125 530.1494140625 441.865234375Q545.533203125 430.392578125 564.306640625 430.392578125Q581.689453125 430.392578125 581.689453125 453.51171875Q581.689453125 457.9443359375 581.6025390625 459.3349609375Z" fill="none" stroke="#ffffff" stroke-width="10" stroke-linecap="round" stroke-opacity=".38" transform="translate(-8 -18) scale(0.98 0.94)"/>
    <path d="M613.0615234375 509.2236328125Q613.0615234375 525.7373046875 601.0673828125 525.7373046875Q595.8525390625 525.7373046875 592.462890625 522.4345703125Q589.0732421875 519.1318359375 589.0732421875 513.9169921875V393.71484375Q589.0732421875 388.673828125 592.7236328125 385.4580078125Q596.2001953125 382.5029296875 601.328125 382.5029296875Q606.4560546875 382.5029296875 609.7587890625 385.58837890625Q613.0615234375 388.673828125 613.0615234375 393.71484375Z" fill="none" stroke="#ffffff" stroke-width="10" stroke-linecap="round" stroke-opacity=".38" transform="translate(-8 -18) scale(0.98 0.94)"/>
    <path d="M690.671875 434.6513671875Q691.8017578125 405.013671875 693.3662109375 393.71484375Q694.84375 383.458984375 704.6650390625 383.458984375Q709.79296875 383.458984375 712.921875 386.76171875Q716.05078125 390.064453125 716.05078125 394.8447265625Q716.05078125 407.447265625 714.09521484375 432.3916015625Q712.1396484375 457.3359375 712.1396484375 469.9384765625Q712.1396484375 500.7060546875 714.138671875 511.1357421875Q714.3994140625 512.5263671875 714.3994140625 513.65625Q714.3994140625 518.4365234375 710.9228515625 521.52197265625Q707.4462890625 524.607421875 702.83984375 524.607421875Q696.408203125 524.607421875 693.279296875 518.87109375Q687.369140625 522.4345703125 681.0244140625 524.21630859375Q674.6796875 525.998046875 667.900390625 525.998046875Q648.431640625 525.998046875 635.568359375 513.5693359375Q622.4443359375 500.8798828125 622.4443359375 481.2373046875Q622.4443359375 457.857421875 635.6552734375 443.47314453125Q648.8662109375 429.0888671875 670.16015625 429.0888671875Q676.6787109375 429.0888671875 681.806640625 430.4794921875Q686.9345703125 431.8701171875 690.671875 434.6513671875ZM688.93359375 462.029296875Q686.0654296875 456.5537109375 681.458984375 453.859375Q676.8525390625 451.1650390625 670.5078125 451.1650390625Q657.64453125 451.1650390625 651.212890625 458.59619140625Q644.78125 466.02734375 644.78125 480.8896484375Q644.78125 490.2763671875 651.734375 496.96875Q658.6875 503.6611328125 667.900390625 503.6611328125Q674.5927734375 503.6611328125 678.0693359375 502.0966796875Q680.416015625 501.0537109375 686.0654296875 496.5341796875Q687.54296875 495.3173828125 688.93359375 493.83984375Q688.759765625 489.66796875 688.93359375 462.029296875Z" fill="none" stroke="#ffffff" stroke-width="10" stroke-linecap="round" stroke-opacity=".38" transform="translate(-8 -18) scale(0.98 0.94)"/>
    <path d="M8 16a6 6 0 0 0 6-6c0-1.655-1.122-2.904-2.432-4.362C10.254 4.176 8.75 2.503 8 0c0 0-6 5.686-6 10a6 6 0 0 0 6 6M6.646 4.646l.708.708c-.29.29-1.128 1.311-1.907 2.87l-.894-.448c.82-1.641 1.717-2.753 2.093-3.13" fill="#ff229b" opacity="0.95" transform="translate(112 500) rotate(-20) scale(5.4)" />
    <path d="M8 16a6 6 0 0 0 6-6c0-1.655-1.122-2.904-2.432-4.362C10.254 4.176 8.75 2.503 8 0c0 0-6 5.686-6 10a6 6 0 0 0 6 6M6.646 4.646l.708.708c-.29.29-1.128 1.311-1.907 2.87l-.894-.448c.82-1.641 1.717-2.753 2.093-3.13" fill="#7a15e8" opacity="0.95" transform="translate(228 558) rotate(14) scale(4.7)" />
    <path d="M8 16a6 6 0 0 0 6-6c0-1.655-1.122-2.904-2.432-4.362C10.254 4.176 8.75 2.503 8 0c0 0-6 5.686-6 10a6 6 0 0 0 6 6M6.646 4.646l.708.708c-.29.29-1.128 1.311-1.907 2.87l-.894-.448c.82-1.641 1.717-2.753 2.093-3.13" fill="#ff8b00" opacity="0.95" transform="translate(708 540) rotate(-12) scale(4.6)" />
    <path d="M8 16a6 6 0 0 0 6-6c0-1.655-1.122-2.904-2.432-4.362C10.254 4.176 8.75 2.503 8 0c0 0-6 5.686-6 10a6 6 0 0 0 6 6M6.646 4.646l.708.708c-.29.29-1.128 1.311-1.907 2.87l-.894-.448c.82-1.641 1.717-2.753 2.093-3.13" fill="#00a9ff" opacity="0.95" transform="translate(827 452) rotate(38) scale(4.4)" />
    <path d="M3.612 15.443c-.386.198-.824-.149-.746-.592l.83-4.73L.173 6.765c-.329-.314-.158-.888.283-.95l4.898-.696L7.538.792c.197-.39.73-.39.927 0l2.184 4.327 4.898.696c.441.062.612.636.282.95l-3.522 3.356.83 4.73c.078.443-.36.79-.746.592L8 13.187l-4.389 2.256z" fill="#ffffff" opacity="0.9" transform="translate(96 252) scale(2.1)" />
    <path d="M3.612 15.443c-.386.198-.824-.149-.746-.592l.83-4.73L.173 6.765c-.329-.314-.158-.888.283-.95l4.898-.696L7.538.792c.197-.39.73-.39.927 0l2.184 4.327 4.898.696c.441.062.612.636.282.95l-3.522 3.356.83 4.73c.078.443-.36.79-.746.592L8 13.187l-4.389 2.256z" fill="#ffffff" opacity="0.9" transform="translate(770 246) scale(2)" />
    <path d="M3.612 15.443c-.386.198-.824-.149-.746-.592l.83-4.73L.173 6.765c-.329-.314-.158-.888.283-.95l4.898-.696L7.538.792c.197-.39.73-.39.927 0l2.184 4.327 4.898.696c.441.062.612.636.282.95l-3.522 3.356.83 4.73c.078.443-.36.79-.746.592L8 13.187l-4.389 2.256z" fill="#ffffff" opacity="0.9" transform="translate(688 76) scale(1.6)" />
    <path d="M12.433 10.07C14.133 10.585 16 11.15 16 8a8 8 0 1 0-8 8c1.996 0 1.826-1.504 1.649-3.08-.124-1.101-.252-2.237.351-2.92.465-.527 1.42-.237 2.433.07M8 5a1.5 1.5 0 1 1 0-3 1.5 1.5 0 0 1 0 3m4.5 3a1.5 1.5 0 1 1 0-3 1.5 1.5 0 0 1 0 3M5 6.5a1.5 1.5 0 1 1-3 0 1.5 1.5 0 0 1 3 0m.5 6.5a1.5 1.5 0 1 1 0-3 1.5 1.5 0 0 1 0 3" fill="#ffffff" opacity="0.92" transform="translate(364 316) rotate(-8) scale(2)" />
    <path d="M15.825.12a.5.5 0 0 1 .132.584c-1.53 3.43-4.743 8.17-7.095 10.64a6.1 6.1 0 0 1-2.373 1.534c-.018.227-.06.538-.16.868-.201.659-.667 1.479-1.708 1.74a8.1 8.1 0 0 1-3.078.132 4 4 0 0 1-.562-.135 1.4 1.4 0 0 1-.466-.247.7.7 0 0 1-.204-.288.62.62 0 0 1 .004-.443c.095-.245.316-.38.461-.452.394-.197.625-.453.867-.826.095-.144.184-.297.287-.472l.117-.198c.151-.255.326-.54.546-.848.528-.739 1.201-.925 1.746-.896q.19.012.348.048c.062-.172.142-.38.238-.608.261-.619.658-1.419 1.187-2.069 2.176-2.67 6.18-6.206 9.117-8.104a.5.5 0 0 1 .596.04" fill="#ffffff" opacity="0.92" transform="translate(548 318) rotate(20) scale(1.8)" />
  </g>
</svg>
